<?xml version="1.0" encoding="UTF-8"?>
<svg id="Layer_1" data-name="Layer 1" xmlns="http://www.w3.org/2000/svg" viewBox="0 0 1095.4 361">
  <defs>
    <style>
      .cls-1 {
        fill: #fff;
      }
    </style>
  </defs>
  <path d="m186.7,295.02c-19.98,0-36.25-10.45-43.07-26.04-6.33,14.35-21.04,26.04-45.24,26.04h-51.56c-30.74,0-46.82-21.56-46.82-42.85,0-25.33,20-36.92,26.57-40.74,3.62-2.1,5.12-2.97,6.91-5.32,5.29-6.94,11.47-15.74,20.05-28.52L148.49,33.28c8.7-13.45,22.9-21.3,38.8-21.3h19.86c21.9,0,39.17,13.78,42.96,34.28l30.06,164.86c.1.63.21,1.18.3,1.65,14.86,9.17,22.39,22.02,22.39,38.23,0,21.2,53.56,44.01-50.38,44.01h-65.79Zm94.46-79.75h0Z"/>
  <path class="cls-1" d="m243.25,251c0,5.25-4.66,7.58-13.12,7.58h-64.71c-5.83,0-9.33-2.33-9.33-6.41,0-9.04,15.74-7.58,15.74-21.86,0-2.33-.29-5.54-.87-9.04l-3.79-22.15c-.29-2.04-1.17-2.62-4.08-2.62h-64.71c-2.91,0-4.66.58-5.83,2.91-11.08,20.69-13.7,28.86-13.7,34.11,0,11.08,11.37,10.78,11.37,18.07,0,5.83-5.54,7-11.66,7H27.84c-6.7,0-9.62-2.33-9.62-6.41,0-9.04,13.41-7.87,25.65-24.2,5.24-7,11.37-15.74,20.99-30.32L158.42,53.08c2.04-3.21,4.37-4.66,7.58-4.66h19.53c3.5,0,5.83,1.17,6.41,4.37l29.44,164.11c4.96,30.9,21.86,22.44,21.86,34.11Zm-83.95-78.41c2.04,0,2.62-.88,2.62-2.04,0-.29,0-.58-.29-2.04l-10.2-58.3c-.29-2.04-.58-2.63-1.17-2.63s-1.17.58-1.75,1.46c-13.7,20.99-27.11,42.27-37.6,59.46-.88,1.46-1.17,2.04-1.17,2.62,0,.88.58,1.46,1.75,1.46h47.81Z"/>
  <path d="m258.05,295.02c-76.33-.65-11.38-19.28-11.38-41.83,0-3.22.29-5.88,1.02-9.48l18.6-89.04c-15.13-10.85-17.84-25.55-17.84-34.7s3.28-38.84,45.45-45.06c13.61-1.91,27.86-5.11,39.4-8.81l1.9-.56c2.93-.84,8.38-2.4,15.23-2.4,9.7,0,18.59,2.85,25.85,7.75,10.88-5.02,21.96-7.75,32.55-7.75,32.98,0,56.92,25.01,56.92,59.46s-21.44,57.71-50.99,57.71c-7.7,0-21.46,2.04-26.65.04-2.57,3.33-5.65,7.9-8.83,13.67-7.65,13.97-14.39,32.25-17.98,48.83l-3.41,16.47c-2.99,15.73-12.03,28.15-24.88,33.73-3.29,1.43-6.9,1.96-10.48,1.96h-64.48Z"/>
  <path class="cls-1" d="m266.56,258.14c-3.5,0-5.54-2.04-5.54-4.96,0-.58,0-.87.29-2.33l19.82-96.48c1.16-6.12,2.62-11.66,2.62-15.74,0-12.54-20.99-7.29-20.99-18.66,0-7,7.87-8.16,13.7-9.04,14.28-2.04,30.32-5.54,44.6-10.2,2.04-.58,3.79-1.17,5.54-1.17,4.66,0,7.58,2.62,7.58,7,0,.88,0,1.17-.29,2.91l-5.24,25.94c-.29,1.46-.29,1.75-.29,2.04,0,.58.29,1.16.88,1.16s1.16-.58,1.75-1.46c17.2-25.95,39.65-37.6,53.05-37.6,12.54,0,19.53,9.03,19.53,23.03,0,8.45-2.63,21.28-13.7,21.28-9.33,0-12.82-7.87-21.57-7.87-15.45,0-30.61,23.03-38.19,37.02-10.2,18.95-17.49,40.81-21.28,58.59l-3.5,20.84c-.58,3.5-2.91,5.54-7.58,6.12l-31.19-.44Z"/>
  <path d="m459.03,62.62c5.73-18.07,22.91-30.3,42.71-30.3h19.59c23.15,0,41.39,16.78,42.21,38.47,27.37,2.27,41.66,21.56,41.66,40.62,0,9.68-3.26,16.95-5.01,20.86l-.41.92c-9.09,23.25-27.03,35-53.34,35-1.06,0,1.5,3.37.47,3.33-1.17,5.78.72,6.53,0,10.86,24.57.08,38.1,19.77,38.1,42.88,0,31.23-42.87,68.95-96.1,68.95-46.85,0-79.58-30.14-79.58-73.3,0-16.68,5.03-35.21,11.4-58.66l-1.69-4.98c-8.95-7.34-14.62-18.17-14.62-30.23,0-2.98.32-5.38.83-8.28l2.36-12.15c3.73-17.62,15.74-29.8,35.25-32.87,0,0,0,0,0,0,1.28-.03,7.28,0,10.93-3.62,3.23-3.21,4.88-6.32,5.23-7.52Zm78.93,145.98h0Z"/>
  <path class="cls-1" d="m519.73,224.85c0,8.16-21.28,32.94-55.09,32.94-23.61,0-39.35-13.41-39.35-37.31,0-18.66,10.2-48.39,18.66-86.57.29-1.46.29-1.75.29-2.04,0-1.17-.88-2.04-2.62-2.04h-17.2c-2.33,0-3.79-1.75-3.79-3.79,0-.29,0-.58.29-2.33l2.04-11.08c.58-2.91,2.62-4.37,6.12-4.95,13.7-2.04,22.74-6.71,28.86-12.54,7.87-7.58,11.08-16.61,13.12-23.32.88-2.91,2.91-4.66,5.83-4.66h18.66c2.63,0,3.79,1.75,3.79,3.79,0,.58,0,.88-.29,2.33l-5.24,25.95c-.58,3.21-.58,4.08-.58,4.66,0,2.92,1.46,4.08,6.7,4.08,4.08,0,8.45,0,13.7-.58,5.25-.58,11.37-1.75,16.91-1.75,2.91,0,8.45.29,8.45,4.66,0,3.21-1.75,6.12-2.92,9.33-2.91,7.87-5.83,11.37-16.61,11.37-4.08,0-8.75-.58-13.7-.87-5.25-.29-11.08-.29-15.45-.29-2.33,0-3.21.87-3.79,2.91-4.96,21.86-11.66,54.8-11.66,73.46,0,11.08,2.91,22.74,15.45,22.74,11.08,0,16.32-9.91,23.32-9.91,2.92,0,6.12,2.33,6.12,5.83Z"/>
  <path d="m625.95,353.28c-84.86,0-114.97-38.94-114.97-72.29,0-20.55,11.58-39.17,29.93-51,1.58-8.52,5.05-16.24,9.81-23.07-6.01-10.7-9.23-22.85-9.23-35.83,0-61.2,62.48-102.31,120.83-102.31,19.13,0,33.74,3.83,44.5,7.97,7.39-4.46,17.25-7.97,30.09-7.97,29.69,0,52.09,20.8,52.09,48.38,0,19.25-10.6,39.34-30.71,49.81-3.94,17.54-9.47,35.64-23.95,49.89,15.02,11.9,19.82,28.25,19.82,47.51,0,43.1-44.94,88.9-128.22,88.9Zm13.2-101.21h0Zm27.89-80.43h0Zm-32.26-24.74h0Z"/>
  <path class="cls-1" d="m719.25,117.17c0,4.08-1.75,20.7-22.74,20.7-1.75,0-4.37-.29-5.83-.58.88,3.5,1.46,7.58,1.46,11.66,0,30.9-27.69,62.67-72.29,65.58-8.16.58-26.23,2.63-26.23,11.08,0,13.99,47.8,4.96,71.12,11.95,12.53,3.79,21.57,13.12,21.57,26.82,0,25.94-31.48,52.47-84.82,52.47-42.27,0-72.29-13.99-72.29-35.85,0-14.58,14.28-24.78,28.28-27.11,2.04-.29,2.33-.88,2.33-1.46,0-1.75-3.21-4.37-3.21-11.95,0-14.87,13.99-25.65,26.53-29.73,1.16-.29,1.75-.58,1.75-1.16,0-.29,0-.58-.88-.88-15.45-6.7-25.94-19.53-25.94-37.6,0-37.31,39.35-65.88,77.83-65.88,29.44,0,41.1,14.28,48.39,14.28s7-14.28,22.15-14.28c8.16,0,12.82,4.66,12.82,11.95Zm-146.91,146.04c-1.75,4.37-7.58,6.42-7.58,13.41,0,8.74,10.49,19.24,40.52,19.24,24.48,0,43.14-6.12,43.14-17.78,0-5.24-5.24-8.16-18.36-8.45-19.24-.29-44.6.29-57.71-6.42Zm74.04-114.26c0-14.57-4.96-23.32-15.74-23.32-20.41,0-26.82,26.82-26.82,44.31,0,15.16,5.83,23.61,16.03,23.61,19.82,0,26.53-27.4,26.53-44.6Z"/>
  <path d="m787.95,294.87c-36.21,0-61.5-25.65-61.5-62.38,0-12.61,3.92-31.13,10.38-60.12,1.15-5.14,2.55-11.45,3.79-17.29-14.99-10.93-17.66-25.7-17.66-34.81,0-6.54,2.18-39.36,45.1-45.12,12.08-1.77,24.38-4.55,36.55-8.26,5.52-1.81,11.55-3.46,18.33-3.46,24.68,0,44.01,19.33,44.01,44.01,0,5.91-.88,10.7-9.41,51.29-1.97,9.36-4.51,21.45-6.81,32.76,12.4,7.24,20.59,20.79,20.59,36.63,0,35.32-46.62,66.75-83.36,66.75Z"/>
  <path d="m798.99,101.88c-7.77,0-15.3-2.66-21.2-7.51l-24.43-20.04c-7.07-5.77-11.16-14.29-11.16-23.34s-.79-12,11.21-23.38l7.9-6.47c11.49-8.14,14.58-8.14,23.07-8.14h29.52c8.59,0,16.86,2.96,23.3,8.33l7.76,6.45c7.03,5.86,11.03,14.36,10.99,23.33-.04,8.98-4.11,17.44-11.17,23.23l-24.66,20.11c-5.9,4.8-13.39,7.44-21.12,7.44Z"/>
  <path class="cls-1" d="m769.7,44.55l7.36-6.15c1.08-.9,2.54-1.41,4.06-1.41h27.33c1.54,0,3.01.52,4.09,1.43l7.22,6.12c.85.72.85,1.89-.01,2.61l-22.79,18.93c-1.27,1.06-3.36,1.06-4.63,0l-22.64-18.91c-.86-.72-.86-1.89,0-2.61Z"/>
  <path class="cls-1" d="m816.31,231.12c0,9.33-23.32,30.32-46.93,30.32-13.99,0-25.07-7.29-25.07-25.94s17.2-79.57,17.2-92.99-20.69-7.87-20.69-19.24c0-6.41,7-8.16,13.7-9.04,13.99-2.04,28.27-5.24,42.56-9.62,2.62-.87,5.54-1.75,7.29-1.75,4.66,0,7.58,2.91,7.58,7.58,0,6.41-22.15,103.19-22.15,114.85,0,4.66,2.04,7.29,5.24,7.29,6.12,0,10.78-7.29,16.03-7.29,3.21,0,5.24,2.62,5.24,5.83Z"/>
  <path d="m917.35,353.69c-84.86,0-114.97-38.94-114.97-72.29,0-20.55,11.58-39.17,29.93-51,1.58-8.52,5.05-16.24,9.81-23.07-6.01-10.7-9.23-22.85-9.23-35.83,0-61.2,62.48-102.31,120.83-102.31,19.13,0,33.74,3.83,44.5,7.97,7.39-4.46,17.25-7.97,30.09-7.97,29.69,0,52.09,20.8,52.09,48.38,0,19.25-10.6,39.34-30.71,49.81-3.94,17.54-9.47,35.64-23.95,49.89,15.02,11.9,19.82,28.25,19.82,47.51,0,43.1-44.94,88.9-128.22,88.9Zm13.2-101.21h0Zm27.89-80.43h0Zm-32.26-24.74h0Z"/>
  <path class="cls-1" d="m1010.64,117.58c0,4.08-1.75,20.7-22.74,20.7-1.75,0-4.37-.29-5.83-.58.88,3.5,1.46,7.58,1.46,11.66,0,30.9-27.69,62.67-72.29,65.58-8.16.58-26.23,2.63-26.23,11.08,0,13.99,47.8,4.96,71.12,11.95,12.53,3.79,21.57,13.12,21.57,26.82,0,25.94-31.48,52.47-84.82,52.47-42.27,0-72.29-13.99-72.29-35.85,0-14.58,14.28-24.78,28.28-27.11,2.04-.29,2.33-.88,2.33-1.46,0-1.75-3.21-4.37-3.21-11.95,0-14.87,13.99-25.65,26.53-29.73,1.16-.29,1.75-.58,1.75-1.16,0-.29,0-.58-.88-.88-15.45-6.7-25.94-19.53-25.94-37.6,0-37.31,39.35-65.88,77.83-65.88,29.44,0,41.1,14.28,48.39,14.28s7-14.28,22.15-14.28c8.16,0,12.82,4.66,12.82,11.95Zm-146.91,146.04c-1.75,4.37-7.58,6.42-7.58,13.41,0,8.74,10.49,19.24,40.52,19.24,24.48,0,43.14-6.12,43.14-17.78,0-5.24-5.24-8.16-18.36-8.45-19.24-.29-44.6.29-57.71-6.42Zm74.04-114.26c0-14.57-4.96-23.32-15.74-23.32-20.41,0-26.82,26.82-26.82,44.31,0,15.16,5.83,23.61,16.03,23.61,19.82,0,26.53-27.4,26.53-44.6Z"/>
</svg>