<svg xmlns="http://www.w3.org/2000/svg" direction="ltr" width="83.03" height="79.19" viewBox="1712.11 253.45 83.03 79.19" stroke-linecap="round" stroke-linejoin="round" style="background-color: transparent;"><defs/><g transform="matrix(1, 0, 0, 1, 1754.88, 293.13)" opacity="1"><path d="M-2.335,0.6473 Q-2.7817,-0.0227 -3.6894,-0.8879 T-5.4986,-2.3585 -7.3166,-3.2416 -9.2324,-3.6685 -9.3798,-4.2379 -8.3968,-3.7247 -7.1157,-2.5622 -5.1397,-1.8292 -3.3529,-0.6496 -1.6577,0.8082 -0.1543,2.4964 1.28,4.2101 0.97,5.1183 -0.7735,5.896 -1.9814,5.1863 -2.4416,2.7422 -2.4661,0.5151 -2.4759,-1.6584 -2.3801,-3.6236 -1.6538,-5.7446 -0.069,-7.7228 2.06,-8.9152 4.16,-9.5116 6.12,-9.9877 8.43,-9.8758 10.23,-8.5128 10.82,-6.4258 10.87,-4.2799 10.79,-2.2636 10.24,-0.2012 9.25,1.9268 7.96,3.8031 6.54,5.3053 5.24,6.9478 4.39,8.3027 3.85,8.941 3.14,9.374 2.32,9.5564 1.49,9.469 0.73,9.121 0.13,8.5488 -0.2627,7.8124 -0.4006,6.9888 -0.2684,6.1644 0.12,5.4253 0.72,4.849 1.48,4.4958 2.31,4.4027 3.12,4.5794 3.84,5.0075 4.38,5.6421 4.69,6.4168 4.74,7.2505 4.52,8.0558 4.05,8.7485 3.39,9.256 2.60,9.5253 1.77,9.528 0.97,9.264 0.31,8.7608 -0.1586,8.0712 -0.3846,7.2673 -0.3421,6.4334 -0.2526,6.0202 -0.0266,5.4337 0.72,4.0145 2.07,2.3699 3.67,0.7883 4.89,-0.908 5.50,-2.8133 5.73,-4.968 6.84,-5.6069 6.94,-4.8359 4.81,-4.3671 3.13,-3.228 2.67,-1.2397 2.68,1.0396 2.72,3.1898 3.00,5.1411 3.09,7.565 1.40,9.4109 -0.927,9.2081 -2.4986,7.6721 -3.8953,6.0345 -5.2043,4.537 -6.7102,3.2214 -8.4563,2.161 -10.4796,1.1109 -12.3294,-0.3092 -13.1648,-2.5973 -13.152,-5.1209 -12.2753,-7.2775 -10.2198,-8.442 -7.8939,-8.3205 -5.7895,-7.7062 -3.6167,-6.6368 -1.6844,-5.2828 0.03,-3.6286 1.41,-1.9681 2.06,-0.9058 2.25,-0.0453 2.10,0.8222 1.62,1.5645 0.90,2.0686 0.04,2.2577 -0.8223,2.1031 -1.5646,1.6283 -1.8884,1.3172 -2.335,0.6473 Z" fill="#e03131" stroke-linecap="round"/></g></svg>